/* XPM */
static char *dummy[]={
"32 32 250 2",
"bi c #92a6d1",
"aa c #93a8d2",
"bT c #94a8d2",
".0 c #95a9d2",
"aq c #95a9d3",
"#D c #97aad3",
"#. c #97aad4",
".o c #98aad3",
"ak c #98abd3",
"ar c #98abd4",
"bs c #98acd3",
".B c #98acd4",
"#n c #99abd4",
".R c #99acd4",
".p c #99add5",
"#a c #9aacd4",
"ae c #9aadd4",
"bl c #9aadd5",
"#v c #9aaed5",
".V c #9badd4",
"#V c #9badd5",
"ad c #9baed4",
".G c #9baed5",
"bg c #9cadd4",
"a8 c #9cadd5",
"#I c #9caed4",
".m c #9caed5",
"bL c #9caed6",
"al c #9cafd4",
"#e c #9cafd5",
"#Z c #9cafd6",
"#K c #9daed5",
"#L c #9daed6",
"#U c #9dafd5",
".z c #9dafd6",
"#p c #9db0d5",
"b# c #9db0d6",
".r c #9eafd5",
"#S c #9eafd6",
"#o c #9eb0d5",
".N c #9eb0d6",
"#d c #9eb0d7",
"#Q c #9eb1d6",
"br c #9eb1d7",
".3 c #9fb0d6",
"aj c #9fb0d7",
"#g c #9fb1d6",
"#i c #9fb1d7",
"bf c #9fb2d6",
"#r c #a0b1d6",
".P c #a0b1d7",
".2 c #a0b2d6",
".E c #a0b2d7",
"a# c #a0b2d8",
"#9 c #a1b1d6",
".n c #a1b2d7",
".A c #a1b2d8",
".T c #a1b3d7",
"#h c #a1b3d8",
"#0 c #a1b4d8",
".4 c #a2b2d7",
"#8 c #a2b2d8",
"#c c #a2b3d7",
".M c #a2b3d8",
"bE c #a2b3d9",
".F c #a2b4d7",
"an c #a2b4d8",
"#T c #a2b4d9",
"#J c #a3b3d7",
".6 c #a3b3d8",
"aV c #a3b3d9",
"#f c #a3b4d7",
"#q c #a3b4d8",
"a. c #a3b4d9",
".9 c #a3b5d8",
"af c #a3b5d9",
"bM c #a4b3d7",
"bS c #a4b3d8",
".Q c #a4b4d8",
"aT c #a4b4d9",
"#H c #a4b5d8",
".q c #a4b5d9",
"aH c #a4b5da",
"#w c #a4b6d8",
".y c #a4b6d9",
".x c #a5b4d9",
"#x c #a5b5d8",
"#b c #a5b5d9",
".O c #a5b5da",
".7 c #a5b6d9",
"bc c #a5b7d9",
".U c #a6b6d9",
".5 c #a6b7d9",
"am c #a6b7da",
"bq c #a6b8da",
"#j c #a7b6da",
".8 c #a7b7d9",
".C c #a7b7da",
"ba c #a7b8d9",
".H c #a7b8da",
"bF c #a8b7da",
"bd c #a8b8d9",
".l c #a8b8da",
"a9 c #a8b9db",
".S c #a9b8da",
"#P c #a9b9da",
".D c #a9b9db",
"aA c #a9badb",
"az c #aab9db",
"by c #aabadb",
".1 c #aabbdb",
"bN c #abbbdb",
".w c #acbbdc",
"#7 c #adbbdc",
"ax c #adbcdc",
"aW c #adbddc",
"bu c #aebcdd",
"be c #afbddc",
"#W c #afbede",
"b. c #b0bfdd",
"as c #b0bfde",
"bk c #b1bfde",
".Z c #b2c0de",
"#G c #b3bfde",
"bv c #b3c0df",
"ag c #b4c1df",
".s c #b4c2df",
"bY c #b4c2e0",
".k c #b6c3e0",
"#s c #b7c4e0",
"#M c #b8c5e1",
"bR c #b9c4e1",
"aI c #b9c6e2",
"ap c #bac7e1",
"bH c #bac7e2",
"bU c #bac8e2",
"aC c #bbc8e2",
".W c #bcc9e3",
"bC c #bdc9e3",
"aO c #becae4",
".L c #bfcce4",
"#3 c #c1cde5",
"#4 c #c2cce5",
"bp c #c3cde5",
"b0 c #c3cee6",
"aB c #c4cee5",
"b1 c #c4cee6",
"bt c #c4cfe6",
"ab c #c4d0e7",
"b2 c #c6d0e7",
"bh c #c6d1e6",
"bm c #c7d2e8",
"aw c #c8d2e7",
"aU c #c8d2e8",
"#m c #c9d3e8",
"aS c #cad3e9",
"bD c #cad4e7",
".e c #cad4e9",
".d c #ccd5e9",
"bI c #ccd6ea",
".t c #cdd6e9",
"aY c #ced7ea",
"bX c #d0d8eb",
"#Y c #d0d9eb",
"aG c #d0daec",
".c c #d1d9eb",
"aF c #d1d9ec",
"a3 c #d1daec",
".f c #d2daec",
"at c #d2dbec",
"a2 c #d3dbec",
".I c #d3dbed",
".j c #d3dced",
"aZ c #d4dced",
"#E c #d5dded",
"bP c #d6ddee",
"a4 c #d6deed",
"bG c #d6deee",
"au c #d7deee",
"a1 c #d8e0ee",
"aN c #d9e1ef",
"#C c #dae0ef",
"#6 c #dae1ef",
"bB c #dae2f0",
"bo c #dbe1ef",
"#O c #dbe1f0",
"bZ c #dbe2f0",
".g c #dce2f0",
"#5 c #dce3f0",
".v c #dce3f1",
".b c #dde3f0",
"bO c #dde4f1",
"a5 c #dee4f1",
"bJ c #dee4f2",
"bw c #dfe5f1",
"bW c #dfe5f2",
"bK c #dfe6f2",
"av c #e1e6f1",
"aR c #e1e6f2",
"a6 c #e1e7f2",
".X c #e1e7f3",
"bQ c #e2e7f2",
"bV c #e4e9f3",
"#R c #e4e9f4",
"#y c #e5e9f4",
"#u c #e6eaf4",
"aP c #e7ebf4",
"a7 c #e7ebf5",
"#1 c #e7ecf5",
"aM c #e8edf5",
"#A c #e9edf5",
"ah c #e9edf6",
"#X c #eaeef6",
"aE c #ebeff6",
"a0 c #ebeff7",
"ac c #eceff7",
"bn c #ecf0f7",
"ai c #edf1f8",
".h c #eef1f8",
".Y c #f0f2f8",
"#2 c #f0f2f9",
"#N c #f0f3f8",
"#B c #f1f2f9",
".a c #f2f4f9",
"#k c #f2f4fa",
"aJ c #f3f4f9",
"aQ c #f3f4fa",
".u c #f3f6fa",
"## c #f4f6fa",
"b3 c #f5f6fb",
".K c #f5f7fb",
"#z c #f6f7fb",
"bj c #f6f8fb",
"aD c #f6f8fc",
"ay c #f7f8fc",
"bb c #f7f9fb",
".i c #f8f9fc",
"aX c #f8fafc",
"aK c #f9fafc",
"bz c #f9fafd",
"#l c #fafbfd",
"bA c #fbfbfd",
"#F c #fbfcfd",
"bx c #fcfcfe",
".J c #fcfdfe",
"#t c #fdfdfe",
"ao c #fdfefe",
".# c #fefefe",
"aL c #fefeff",
"Qt c #ffffff",
"QtQtQtQtQtQtQtQtQtQtQtQtQtQtQtQtQtQtQtQtQtQtQtQtQtQtQtQtQtQtQtQt",
"QtQtQtQtQtQtQtQtQtQtQt.#.a.b.c.d.e.f.g.h.#QtQtQtQtQtQtQtQtQtQtQt",
"QtQtQtQtQtQtQtQtQt.i.j.k.l.m.n.o.p.q.r.q.s.t.uQtQtQtQtQtQtQtQtQt",
"QtQtQtQtQtQtQtQt.v.w.p.x.y.z.A.B.C.D.E.F.G.o.H.I.JQtQtQtQtQtQtQt",
"QtQtQtQtQtQt.K.L.E.M.N.q.O.P.Q.R.M.S.T.U.y.N.E.V.W.XQtQtQtQtQtQt",
"QtQtQtQtQt.Y.Z.0.y.1.2.E.Q.3.n.4.E.5.6.7.8.9.3.3#..C.hQtQtQtQtQt",
"QtQtQtQt##.k#a.4#b.7#c.n.N#d#e.n#b#f.Q#g#h#e.N#e#i.V#j#kQtQtQtQt",
"QtQtQt#l#m#n#b.n.7.U.n.z#o.4#p.M#b.n.N.V#q#b#b#r.n.G.R#s#tQtQtQt",
"QtQtQt#u#v.M#w#x.n.4.8.2.E.7#q.N#q.n.U.e#y#z#l#A#B#C.z#D#EQtQtQt",
"QtQt#F#G.E#q.E.T.E.6.l#H.n#I#J#K#L#M#NQtQtQtQtQtQtQt#O#P#Q##QtQt",
"QtQt#R.M#S.P#g.N.M.7#T.M#r#U#o#V#W.KQtQtQtQt.JQtQtQtQt#X#q#YQtQt",
"QtQt.k#g#U.n#b.q.n.T.Q#H.M.P#Z#0#1QtQtQt#2#3#4.w#5QtQtQt#6#7#FQt",
"Qt.a.w#8.y#9.n#x.3#c#q.Ua.a#aaabQtQtQtac.lad#UaeafacQtQt.JagahQt",
"Qtai.3aj.7#r.zakal#U.M.Tam#gan.XQtQtaoapaq.G#o#Uaras.JQtQtatauQt",
"Qtav.Uaj.N.q#qaw#max.3.M#ba..qayQtQt##az.saAaBaC.8#WaDQtQtaEaFQt",
"Qt.t#r.5.E.EaGQtQtaE.U.P#8aHaI#lQtQt#A#qaJ#F.JQtQtaKaLQtQt.K.jQt",
"QtaM.N.6.N#iaNQtQt#z.M.3#b#iaO#FQtQtaP.TaQQtQtQtQtQtQtQtQt.#aRQt",
"QtaS.NaT#H#aaU#N#F.caV#I.E.MaWaXQtQtac.MaYaZ.aa0a1a2a3.fa4a5a6Qt",
"Qta7a8.3#H#8#Sa9b.b##Z#9#e.mbabbQtQt.Kbc#g.3#Q.9.H.T.3.3bd.nauQt",
"Qt#tbebf.4#b.P#d.N#h#ibg#g.z#ea2QtQtQtbhbi#q#H#U.Rbf.z.3.o#JbjQt",
"QtaXbkbl.M#q#b.naf#h.3.E#d.ParbmQtQtQtbn.Z#e.Q.U.N.M#i.N.5boQtQt",
"QtQtbpae.E.Abc.T#hbq.E.Pbr#8ajbs.tQtQtQtaLbt#L#g#H#bbubvbwQtQtQt",
"QtQtbx.S.N.M#c#b#q.A#H.E.E.n.6#gbybzQtQtQtbAbBbC#MbD#2QtQtQtQtQt",
"QtQtQt#XarbE.q.E.7.6#qan#x.A.T.naVbFbGQtQtQtQtQtQtQtQtQtQtQtQtQt",
"QtQtQt#zbHar.E#Ha..Q.M.A#q#q.9.N.9.N#ibI.KQtQtQtQtQtQtQtQtQtQtQt",
"QtQtQtQtbJambl.A#c.T#H#h#q#9.q.T#H.E#i#c#MbK.iQtQt#Na4#zQtQtQtQt",
"QtQtQtQtQt.t#8bL.E.P.U#i#b#r#8#8.n#HbM.N#g.m.EazbN.DbO.JQtQtQtQt",
"QtQtQtQtQtQtbI.Dajb#.AaV.q#J#haf.3#q.Q#U.n.7.7#n.zbP#tQtQtQtQtQt",
"QtQtQtQtQtQtQtbQbRba#Daj.E.UbS.n.7#r.P#qanb#bTbUbVQtQtQtQtQtQtQt",
"QtQtQtQtQtQtQtQt.ibWbX.8ar#U#g#SbF.nae#g#qbYbZ.KQtQtQtQtQtQtQtQt",
"QtQtQtQtQtQtQtQtQtQtQtaL.ebkb0bk.7b1.Wb2##b3QtQtQtQtQtQtQtQtQtQt",
"QtQtQtQtQtQtQtQtQtQtQtQtQtQtbxQt###lQtQtQtQtQtQtQtQtQtQtQtQtQtQt"};
